<svg width="52" height="52" viewBox="0 0 52 52" fill="none" xmlns="http://www.w3.org/2000/svg">
<circle cx="26" cy="26" r="26" fill="url(#paint0_linear_1264_11038)"/>
<path fill-rule="evenodd" clip-rule="evenodd" d="M23.6713 7.17075C18.7887 7.59817 14.239 9.41659 12.0144 11.8295L11.8184 12.0421L11.8353 21.5046L11.838 23.0269C11.8505 30.2732 11.8521 31.2373 12.0112 32.1722C12.0356 32.3156 12.0638 32.4584 12.0962 32.6231C12.1102 32.6943 12.1251 32.7698 12.1408 32.8511C13.226 38.4694 17.587 43.2485 24.8636 46.7934C24.9461 46.8336 25.0224 46.8709 25.0931 46.9055C25.7068 47.2057 25.897 47.2988 26.0704 47.2729C26.1479 47.2614 26.2223 47.2261 26.3298 47.1751C26.3574 47.162 26.3876 47.1477 26.4202 47.1326C34.0818 43.5969 38.7632 38.5946 39.8801 32.7495C39.8914 32.6904 39.9022 32.6345 39.9126 32.581L39.9127 32.5803C39.9422 32.4279 39.968 32.2947 39.9906 32.1609C40.1472 31.2326 40.1489 30.2757 40.1625 22.6867L40.1647 21.4711L40.182 12.023L39.849 11.7007C37.598 9.5221 33.8027 7.87072 29.8218 7.33779C28.0215 7.09689 25.3451 7.02411 23.6713 7.17075ZM27.6212 9.10327C31.831 9.38118 35.4426 10.62 38.0091 12.6668L38.2374 12.8488L38.2504 21.6217C38.2636 30.6199 38.2579 30.9733 38.0822 32.02C37.2353 37.0666 33.7217 41.0958 27.1418 44.5656L26.0002 45.1676L25.2468 44.7829C18.0512 41.1092 14.3075 36.6113 13.787 31.0146C13.7601 30.7261 13.7421 27.0523 13.7414 21.7115L13.7402 12.8853L13.843 12.7879C16.4525 10.3119 22.2881 8.75132 27.6212 9.10327ZM25.0185 10.1817C21.1604 10.3498 17.724 11.3614 15.3116 13.0393L14.7905 13.4018V19.4064V25.4111H20.3839H25.9774V34.6629C25.9774 39.7515 25.9909 43.9148 26.0075 43.9148C26.0606 43.9148 28.0387 42.8416 28.5116 42.5562C33.2469 39.6986 36.0193 36.3827 36.8956 32.5292C37.1519 31.4019 37.1752 31.0622 37.1978 28.1174L37.2191 25.3633H31.6211H26.0231V17.7568V10.1504L25.6692 10.1595C25.4745 10.1645 25.1817 10.1745 25.0185 10.1817ZM31.9081 12.3849C31.1839 12.8646 31.0805 13.9671 31.6706 14.9148C31.8399 15.1866 31.8401 14.8854 31.6709 14.5224C31.2112 13.5354 31.3089 12.9749 32.0504 12.3483C32.2147 12.2093 32.1468 12.2268 31.9081 12.3849ZM35.2409 13.5302C34.4837 13.8437 33.4234 14.4786 33.3577 14.6578C33.3421 14.7 33.312 14.7232 33.2904 14.7095C33.1433 14.6143 31.6406 16.2185 31.3807 16.748C31.3401 16.8306 31.2571 16.9608 31.1961 17.037C30.8415 17.4807 30.267 18.9933 30.0715 19.9982C29.9593 20.5746 29.508 21.7943 28.9198 23.1098C28.6677 23.6737 28.6734 23.7123 28.9751 23.49C29.0968 23.4004 29.284 23.2768 29.3908 23.2155L29.5852 23.1041L29.4718 22.9803L29.3583 22.8566L29.7143 21.9998C30.7605 19.4808 31.3396 18.4026 32.3575 17.078C32.8267 16.4674 32.8493 16.483 32.4012 17.108C31.6774 18.1181 30.4521 20.4804 30.4521 20.8659C30.4521 21.0517 31.5562 20.4396 32.0651 19.9717C32.3236 19.7341 32.3202 19.718 32.0295 19.8092C31.648 19.9292 31.6906 19.8846 32.2401 19.5896C32.8952 19.2376 33.4531 18.6702 34.0195 17.7796L34.0331 17.7581C34.2583 17.4041 34.3501 17.2598 34.3236 17.2299C34.3054 17.2093 34.2311 17.2428 34.1059 17.2993L34.095 17.3042C33.4296 17.6045 33.4221 17.576 34.0695 17.2083C34.5691 16.9247 34.7833 16.6883 35.2374 15.92C35.652 15.2184 35.6521 15.2149 35.2558 15.3222C35.1052 15.3629 34.9684 15.3962 34.9517 15.3962C34.9349 15.3962 35.0612 15.2962 35.2323 15.1739C35.9342 14.6723 36.0684 14.4664 36.0684 13.8922C36.0684 13.3487 35.879 13.2659 35.2409 13.5302ZM20.8943 15.447C22.3556 15.6551 22.7662 17.1769 21.5308 17.8048C21.3287 17.9074 21.2443 17.9702 21.3077 17.9707C22.5179 17.98 23.1401 19.5994 22.279 20.499C21.7842 21.0156 21.2702 21.1292 19.5063 21.1108C18.1326 21.0963 18.0228 21.0843 18.3735 20.9865C18.3892 20.9821 18.4041 20.9781 18.4185 20.9743C18.4832 20.957 18.535 20.9432 18.5763 20.9135C18.7407 20.7957 18.7406 20.4275 18.7401 18.5948L18.7401 18.2751L18.7401 18.0718C18.7403 16.1142 18.7403 15.7525 18.578 15.6347C18.5412 15.608 18.4961 15.5938 18.4408 15.5765L18.4158 15.5686C18.343 15.5453 18.2528 15.5132 18.2151 15.4971C18.1774 15.481 18.5473 15.4563 19.037 15.4423C19.5267 15.4284 20.0645 15.4123 20.2322 15.4066C20.4 15.4008 20.6979 15.4191 20.8943 15.447ZM19.6062 15.5525C19.5486 15.5863 19.5392 15.9645 19.5392 18.2583V20.9249L19.6375 20.9798C19.8108 21.0766 20.7519 21.0135 21.0233 20.8869C21.6073 20.6141 21.864 20.0486 21.7707 19.2392C21.6758 18.4155 21.1503 18.0192 20.1534 18.0192C19.6863 18.0192 19.7247 17.945 20.2118 17.9058C21.1351 17.8318 21.3837 17.5984 21.3868 16.8031C21.3902 15.9486 20.9892 15.5725 20.0286 15.5294C19.833 15.5207 19.643 15.531 19.6062 15.5525ZM34.1883 18.6678C34.1212 18.7381 34.126 18.7694 34.247 19.0482C35.1748 21.1853 34.4022 21.905 31.8622 21.2697C31.5187 21.1839 31.5125 21.1839 31.3884 21.2785L31.2625 21.3742L31.4624 21.4366C34.3786 22.3471 35.5458 21.3906 34.4827 18.9617C34.308 18.5623 34.2984 18.5528 34.1883 18.6678ZM28.6028 20.2904C28.5527 20.3008 28.3986 20.333 28.2604 20.3621C26.9585 20.6361 26.8022 21.8501 27.8695 23.3983C28.0755 23.6971 28.1476 23.6982 27.9512 23.3995C26.9085 21.813 27.1388 20.693 28.5448 20.512C28.7943 20.48 28.8332 20.4614 28.8458 20.3679C28.8607 20.2582 28.8212 20.2455 28.6028 20.2904ZM20.1461 27.3599C18.9137 28.3773 18.6779 29.7631 19.4473 31.4678C19.9103 32.4934 20.0871 33.2007 20.0871 34.0253V34.4245H20.7195H21.3518L21.4387 34.2218C21.6585 33.7084 22.3638 33.1569 22.9434 33.0451L22.9727 33.0394L23.0167 33.0308C23.2171 32.9914 23.3184 32.9715 23.3694 33.0154C23.4215 33.0601 23.4212 33.1714 23.4206 33.3963C23.4205 33.4216 23.4205 33.4484 23.4205 33.4766V33.9595L23.5687 33.9286C25.3673 33.5535 25.6627 30.9965 23.9413 30.7039C22.6934 30.4918 21.5833 31.6634 20.9251 33.8872C20.7573 34.4543 20.7058 34.4477 20.7457 33.8642C20.8068 32.9745 20.9515 32.4344 21.388 31.4678C22.1371 29.8087 21.9131 28.378 20.7515 27.4035L20.7486 27.401C20.5772 27.2573 20.4966 27.1897 20.4177 27.1918C20.3475 27.1936 20.2787 27.2504 20.1487 27.3577L20.1461 27.3599ZM32.8022 29.6484C33.4743 29.9013 33.6053 30.1578 33.4423 30.903C33.2032 31.9964 33.1902 32.012 33.1753 31.222C33.1553 30.1512 32.7419 29.6887 31.7992 29.6822C30.9497 29.6763 30.5507 30.0721 30.7251 30.7481C30.8225 31.1262 31.0865 31.3377 32.3343 32.0379C33.5176 32.7019 33.9169 33.4457 33.5452 34.2939C33.1029 35.3029 31.4505 35.7042 30.3381 35.0728C29.7504 34.7394 29.6877 34.52 29.9105 33.5768C30.0951 32.7958 30.1145 32.7838 30.1451 33.4321C30.2054 34.709 30.6098 35.1636 31.685 35.1636C32.538 35.1636 32.9185 34.8558 32.9175 34.1666C32.9164 33.4732 32.6385 33.1798 31.223 32.3764C30.0989 31.7385 29.7439 31.0929 30.1307 30.3886C30.5412 29.6411 31.832 29.2834 32.8022 29.6484ZM16.7996 30.7218C15.1695 31.1035 15.5474 33.6396 17.278 33.9328L17.4388 33.96V33.4707V32.9814L17.7191 33.0145C18.4324 33.0989 19.0882 33.5825 19.4209 34.2694C19.5075 34.4484 20.0414 34.518 20.0414 34.3503C20.0414 34.2292 19.6334 32.9979 19.4706 32.6277C18.8839 31.2941 17.7651 30.4958 16.7996 30.7218ZM19.229 34.7605C18.976 34.8666 18.9495 35.3709 19.1875 35.5451C19.3141 35.6375 21.4455 35.6518 21.6083 35.5612C21.8652 35.4184 21.9041 35.0749 21.6888 34.8499L21.5553 34.7106L20.4445 34.7136C19.8336 34.7153 19.2867 34.7364 19.229 34.7605ZM19.448 36.1088C19.448 36.6099 19.211 37.0239 18.8935 37.0777C18.6735 37.1151 18.4091 36.9926 18.3716 36.8359C18.2959 36.5212 18.1428 37.1187 18.2144 37.4497C18.3646 38.1455 19.4654 38.1477 19.7726 37.4527L19.8568 37.2621L19.8586 37.4527C19.863 37.9152 20.0919 38.6835 20.3048 38.9498L20.4325 39.1095L20.5616 38.9147C20.7404 38.6454 20.8912 38.1876 20.9577 37.7131C21.0042 37.3808 21.0209 37.3327 21.0553 37.4304C21.1691 37.7526 21.482 37.9535 21.8701 37.9535C22.5114 37.9535 22.7807 37.5395 22.5948 36.8398L22.546 36.656L22.4694 36.8153C22.1528 37.4747 21.4998 37.0607 21.3875 36.1293L21.3601 35.9029H20.4039H19.448V36.1088Z" fill="white"/>
<defs>
<linearGradient id="paint0_linear_1264_11038" x1="58.5" y1="50.8182" x2="-1.18182" y2="-7.09091" gradientUnits="userSpaceOnUse">
<stop stop-color="#153164"/>
<stop offset="1" stop-color="#2A63CA"/>
</linearGradient>
</defs>
</svg>
