<svg width="28" height="29" viewBox="0 0 28 29" fill="none" xmlns="http://www.w3.org/2000/svg">
<path fill-rule="evenodd" clip-rule="evenodd" d="M14 23.5C18.9706 23.5 23 19.4706 23 14.5C23 9.52944 18.9706 5.5 14 5.5C9.02944 5.5 5 9.52944 5 14.5C5 19.4706 9.02944 23.5 14 23.5Z" fill="#36B37E"/>
<path d="M12.7988 17.3682L10.3525 14.9365C10.2842 14.8682 10.25 14.7803 10.25 14.6729C10.25 14.5654 10.2842 14.4775 10.3525 14.4092L10.8945 13.8818C10.9629 13.8037 11.0483 13.7647 11.1509 13.7647C11.2534 13.7647 11.3437 13.8037 11.4219 13.8818L13.0625 15.5225L16.5781 12.0068C16.6562 11.9287 16.7466 11.8897 16.8491 11.8897C16.9516 11.8897 17.0371 11.9287 17.1055 12.0068L17.6474 12.5342C17.7158 12.6026 17.75 12.6904 17.75 12.7979C17.75 12.9053 17.7158 12.9932 17.6474 13.0615L13.3262 17.3682C13.2578 17.4463 13.1699 17.4854 13.0625 17.4854C12.9551 17.4854 12.8672 17.4463 12.7988 17.3682Z" fill="#C6F7FF"/>
</svg>
