<svg width="151" height="51" viewBox="0 0 151 51" fill="none" xmlns="http://www.w3.org/2000/svg">
<path d="M8.47202 3.39258H5.12305V28.2144C14.3167 27.8423 19.7527 29.8883 30.1418 39.2463C23.4634 30.4596 18.8143 27.4705 9.17826 26.3242C8.7784 26.2766 8.47202 25.9391 8.47202 25.5364V3.39258Z" fill="#004AAD"/>
<path d="M10.4395 24.471V0.240234C17.8457 0.720535 22.313 2.70243 31.3213 11.8631V39.6399C25.5192 28.2981 20.9165 25.0662 10.4395 24.471Z" fill="#004AAD"/>
<path d="M13.3965 13.0452L25.7614 6.48047L26.7214 7.12049L16.5485 12.6512L27.3834 14.2272C26.4178 20.3269 27.4192 22.9926 32.3083 26.2441L31.3233 27.229C26.3709 23.8786 25.1883 21.1696 25.6104 15.0152L13.3965 13.0452Z" fill="white"/>
<circle cx="37.6281" cy="16.9856" r="10.6379" fill="#004AAD"/>
<path d="M36.2489 2.01367L16.7461 12.4546L27.187 14.2276L44.7199 9.30261L53.5848 4.57465L36.2489 2.01367Z" fill="#004AAD"/>
<path d="M3.34897 8.51465H0V33.3364C11.6822 32.5075 18.0999 34.0624 29.3528 40.2314C23.6899 33.7819 19.082 31.0979 4.14306 30.9765C3.70852 30.973 3.34897 30.6207 3.34897 30.1861V8.51465Z" fill="#004AAD"/>
<path d="M35.5817 38.0176C35.5755 38.0176 35.5677 38.0145 35.5583 38.0082C35.549 37.9989 35.5443 37.9895 35.5443 37.9802V37.7744C35.5443 37.7494 35.5568 37.737 35.5817 37.737C35.616 37.737 35.655 37.737 35.6986 37.737C35.7423 37.737 35.7844 37.7354 35.8249 37.7323C35.8685 37.7292 35.9075 37.7261 35.9418 37.7229C35.9761 37.7198 36.0026 37.7136 36.0213 37.7042C36.0993 37.6668 36.1632 37.6169 36.2131 37.5546C36.263 37.4922 36.3004 37.4205 36.3253 37.3394C36.3534 37.2584 36.3721 37.1695 36.3814 37.0729C36.3908 36.9762 36.3955 36.8733 36.3955 36.7642V32.092C36.3955 32.0078 36.3612 31.9408 36.2926 31.8909C36.2271 31.8379 36.1492 31.7989 36.0587 31.774C35.9714 31.7459 35.881 31.7272 35.7875 31.7179C35.6971 31.7085 35.6285 31.7038 35.5817 31.7038C35.5661 31.7038 35.5552 31.6991 35.549 31.6898C35.5458 31.6804 35.5443 31.6726 35.5443 31.6664V31.4606C35.5443 31.4544 35.5458 31.4466 35.549 31.4372C35.5552 31.4279 35.5661 31.4232 35.5817 31.4232H37.7003L41.7318 35.8849C41.7473 35.9005 41.7583 35.913 41.7645 35.9223C41.7707 35.9286 41.7785 35.9317 41.7879 35.9317C41.8004 35.9317 41.8081 35.927 41.8113 35.9177C41.8144 35.9083 41.8159 35.899 41.8159 35.8896V33.1116C41.8159 32.8029 41.805 32.5566 41.7832 32.3726C41.7614 32.1855 41.7208 32.0437 41.6616 31.947C41.6024 31.8472 41.5229 31.7818 41.4231 31.7506C41.3233 31.7194 41.1955 31.7038 41.0396 31.7038H40.8011C40.7855 31.7038 40.7746 31.6991 40.7683 31.6898C40.7652 31.6804 40.7637 31.6726 40.7637 31.6664V31.4606C40.7637 31.4544 40.7652 31.4466 40.7683 31.4372C40.7746 31.4279 40.7855 31.4232 40.8011 31.4232H43.3733C43.392 31.4232 43.403 31.4279 43.4061 31.4372C43.4092 31.4466 43.4108 31.4544 43.4108 31.4606V31.6664C43.4108 31.6726 43.4076 31.6804 43.4014 31.6898C43.3983 31.6991 43.3889 31.7038 43.3733 31.7038C43.311 31.7038 43.2299 31.7163 43.1301 31.7412C43.0335 31.7662 42.9384 31.802 42.8449 31.8488C42.7513 31.8956 42.6702 31.9533 42.6017 32.0219C42.5362 32.0904 42.5034 32.1684 42.5034 32.2557V37.7884C42.5034 37.8414 42.491 37.8866 42.466 37.924C42.4411 37.9583 42.4083 37.9864 42.3678 38.0082C42.3304 38.03 42.2883 38.0456 42.2415 38.055C42.1979 38.0675 42.1574 38.0737 42.1199 38.0737C42.0576 38.0737 41.9843 38.0597 41.9001 38.0316C41.8191 38.0067 41.738 37.949 41.6569 37.8586L37.242 32.9619C37.2202 32.9401 37.2046 32.9276 37.1952 32.9245C37.1859 32.9182 37.1734 32.9151 37.1578 32.9151C37.1422 32.9151 37.1344 32.9307 37.1344 32.9619V37.1383C37.1344 37.2256 37.1547 37.302 37.1952 37.3675C37.2389 37.4299 37.2934 37.4844 37.3589 37.5312C37.4244 37.5748 37.4961 37.6107 37.574 37.6388C37.6551 37.6637 37.7331 37.684 37.8079 37.6996C37.8858 37.7151 37.9544 37.7261 38.0137 37.7323C38.076 37.7354 38.1228 37.737 38.154 37.737C38.1696 37.737 38.1805 37.7432 38.1867 37.7557C38.1898 37.7619 38.1914 37.7681 38.1914 37.7744V37.9802C38.1914 37.9864 38.1883 37.9942 38.182 38.0035C38.1789 38.0129 38.1696 38.0176 38.154 38.0176H35.5817ZM49.2344 38.1392C49.1252 38.1392 48.9881 38.1298 48.8228 38.1111C48.6607 38.0924 48.4814 38.0581 48.285 38.0082C48.0917 37.9583 47.889 37.8929 47.677 37.8118C47.465 37.7307 47.2561 37.6278 47.0503 37.5031C46.8476 37.3753 46.6543 37.2256 46.4703 37.0541C46.2864 36.8795 46.1243 36.6784 45.984 36.4508C45.8468 36.2201 45.7361 35.9582 45.6519 35.6651C45.5708 35.372 45.5303 35.0431 45.5303 34.6783C45.5303 34.354 45.574 34.0438 45.6613 33.7476C45.7517 33.4514 45.8795 33.1755 46.0448 32.9198C46.21 32.6641 46.4095 32.4319 46.6434 32.223C46.8804 32.0141 47.1438 31.8363 47.4338 31.6898C47.7237 31.5433 48.0387 31.4295 48.3785 31.3484C48.7184 31.2673 49.0754 31.2268 49.4495 31.2268C49.7738 31.2268 50.0871 31.2673 50.3896 31.3484C50.6951 31.4263 50.9804 31.5386 51.2454 31.6851C51.5104 31.8285 51.7521 32.0016 51.9703 32.2042C52.1917 32.4069 52.3819 32.633 52.5409 32.8824C52.6999 33.1318 52.8231 33.4015 52.9104 33.6915C52.9977 33.9783 53.0413 34.2777 53.0413 34.5894C53.0413 34.8825 52.9992 35.1741 52.9151 35.464C52.8309 35.7509 52.7093 36.0268 52.5503 36.2918C52.3912 36.5537 52.1979 36.7969 51.9703 37.0214C51.7458 37.2459 51.4933 37.4423 51.2127 37.6107C50.9321 37.7759 50.625 37.9053 50.2913 37.9989C49.9577 38.0924 49.6054 38.1392 49.2344 38.1392ZM46.9053 34.5053C46.9053 34.7578 46.9302 35.0104 46.9801 35.2629C47.0331 35.5155 47.1095 35.7587 47.2093 35.9925C47.3091 36.2263 47.4322 36.4462 47.5788 36.6519C47.7253 36.8546 47.8921 37.0323 48.0792 37.1851C48.2663 37.3348 48.4736 37.4532 48.7012 37.5405C48.9319 37.6247 49.1814 37.6668 49.4495 37.6668C49.8268 37.6668 50.1541 37.5873 50.4316 37.4283C50.7091 37.2662 50.9383 37.0526 51.1191 36.7876C51.3031 36.5225 51.4387 36.2185 51.526 35.8756C51.6164 35.5295 51.6617 35.1725 51.6617 34.8046C51.6617 34.5364 51.6352 34.2745 51.5821 34.0189C51.5323 33.7601 51.4574 33.5153 51.3577 33.2846C51.261 33.0508 51.1394 32.8372 50.9929 32.6439C50.8494 32.4474 50.6826 32.2775 50.4924 32.1341C50.3054 31.9907 50.0965 31.88 49.8657 31.802C49.6381 31.721 49.3903 31.6804 49.1221 31.6804C48.882 31.6804 48.6607 31.7179 48.458 31.7927C48.2553 31.8675 48.0714 31.9704 47.9061 32.1014C47.744 32.2292 47.6006 32.3835 47.4759 32.5644C47.3512 32.7421 47.2467 32.9354 47.1625 33.1443C47.0783 33.3532 47.0144 33.5746 46.9708 33.8084C46.9271 34.0391 46.9053 34.2714 46.9053 34.5053ZM55.2404 38.0176C55.2217 38.0176 55.2108 38.0129 55.2076 38.0035C55.2045 37.9911 55.203 37.9833 55.203 37.9802V37.7791C55.203 37.7759 55.2045 37.7697 55.2076 37.7604C55.2108 37.7479 55.2217 37.7416 55.2404 37.7416H55.3433C55.4087 37.7416 55.4898 37.7385 55.5865 37.7323C55.6831 37.7229 55.7767 37.7011 55.8671 37.6668C55.9575 37.6294 56.0339 37.5748 56.0962 37.5031C56.1617 37.4283 56.1945 37.327 56.1945 37.1991V32.2136C56.1945 32.1169 56.1726 32.0359 56.129 31.9704C56.0885 31.9018 56.0354 31.8472 55.97 31.8067C55.9076 31.7631 55.8375 31.7319 55.7595 31.7132C55.6816 31.6945 55.6083 31.6851 55.5397 31.6851H55.2404C55.2217 31.6851 55.2108 31.6804 55.2076 31.6711C55.2045 31.6586 55.203 31.6508 55.203 31.6477V31.4466C55.203 31.4435 55.2045 31.4372 55.2076 31.4279C55.2108 31.4154 55.2217 31.4092 55.2404 31.4092H55.3433L57.2655 31.3764C57.4463 31.3733 57.6412 31.3718 57.8501 31.3718C58.0621 31.3687 58.2585 31.3671 58.4394 31.3671C58.6358 31.3671 58.8119 31.3702 58.9678 31.3764C59.1237 31.3796 59.2734 31.3889 59.4168 31.4045C59.5602 31.417 59.7052 31.4341 59.8518 31.456C59.9983 31.4778 60.162 31.5074 60.3428 31.5448C60.6889 31.6165 61.0101 31.749 61.3063 31.9423C61.6056 32.1357 61.8628 32.3695 62.0779 32.6439C62.2962 32.9182 62.4661 33.2222 62.5877 33.5559C62.7124 33.8895 62.7748 34.2309 62.7748 34.5801C62.7748 34.9168 62.728 35.2364 62.6345 35.5388C62.541 35.8382 62.41 36.1157 62.2416 36.3713C62.0764 36.6239 61.8784 36.853 61.6477 37.0588C61.4201 37.2615 61.1691 37.4345 60.8947 37.578C60.6203 37.7183 60.3288 37.8274 60.0201 37.9053C59.7115 37.9802 59.395 38.0176 59.0707 38.0176H55.376H55.2404ZM57.5274 37.2927C57.5274 37.3831 57.5554 37.4532 57.6115 37.5031C57.6708 37.553 57.7472 37.5904 57.8407 37.6154C57.9374 37.6372 58.0496 37.6497 58.1774 37.6528C58.3053 37.6559 58.4394 37.6575 58.5797 37.6575C59.5057 37.6575 60.1994 37.4018 60.6609 36.8905C61.1254 36.3791 61.3577 35.6339 61.3577 34.6549C61.3577 34.2247 61.3047 33.8302 61.1987 33.4717C61.0958 33.1131 60.9368 32.8044 60.7217 32.5457C60.5096 32.2869 60.2415 32.0858 59.9172 31.9423C59.5961 31.7989 59.2157 31.7272 58.7761 31.7272H57.6443C57.5975 31.7272 57.5663 31.7381 57.5507 31.7599C57.5352 31.7787 57.5274 31.8098 57.5274 31.8535V37.2693V37.2927ZM63.683 37.7978C63.683 37.7728 63.6955 37.7604 63.7205 37.7604C63.7797 37.7572 63.8483 37.7494 63.9262 37.737C64.0073 37.7214 64.0884 37.6918 64.1694 37.6481C64.2536 37.6013 64.3347 37.5343 64.4126 37.447C64.4906 37.3566 64.5561 37.2334 64.6091 37.0775L66.4892 31.6243C66.4892 31.6274 66.4892 31.6259 66.4892 31.6196C66.4923 31.6134 66.4938 31.6072 66.4938 31.6009C66.4938 31.5791 66.4845 31.5526 66.4658 31.5214C66.4502 31.4871 66.4424 31.4622 66.4424 31.4466C66.4424 31.431 66.4486 31.4232 66.4611 31.4232H67.8174C67.8236 31.4263 67.8314 31.4295 67.8408 31.4326C67.8532 31.4357 67.8626 31.445 67.8688 31.4606L69.8471 37.0121C69.8783 37.0994 69.9079 37.1742 69.936 37.2365C69.9641 37.2989 69.9968 37.355 70.0342 37.4049C70.0747 37.4517 70.1246 37.4953 70.1839 37.5359C70.2431 37.5733 70.3195 37.6123 70.413 37.6528C70.4567 37.6746 70.5159 37.698 70.5908 37.7229C70.6656 37.7479 70.7373 37.7604 70.8059 37.7604C70.8215 37.7604 70.8308 37.765 70.8339 37.7744C70.8402 37.7837 70.8433 37.7931 70.8433 37.8024V37.9802C70.8433 37.9864 70.8402 37.9942 70.8339 38.0035C70.8308 38.0129 70.8215 38.0176 70.8059 38.0176H67.5227C67.5071 38.0176 67.4962 38.0129 67.49 38.0035C67.4869 37.9942 67.4853 37.9864 67.4853 37.9802V37.7978C67.4853 37.7915 67.4869 37.7837 67.49 37.7744C67.4962 37.765 67.5071 37.7604 67.5227 37.7604C67.5352 37.7604 67.5477 37.7604 67.5602 37.7604C67.5726 37.7572 67.582 37.7557 67.5882 37.7557C67.6225 37.7526 67.6708 37.7494 67.7332 37.7463C67.7987 37.7432 67.8688 37.7385 67.9437 37.7323C68.0185 37.7229 68.0933 37.7105 68.1681 37.6949C68.2461 37.6762 68.3162 37.6512 68.3786 37.62C68.441 37.5857 68.4924 37.5421 68.5329 37.4891C68.5735 37.4361 68.5937 37.3706 68.5937 37.2927C68.5937 37.274 68.5906 37.2521 68.5844 37.2272L67.9717 35.5388C67.9686 35.5326 67.9624 35.5186 67.953 35.4968C67.9468 35.4749 67.9343 35.4531 67.9156 35.4313C67.9 35.4063 67.8782 35.3845 67.8501 35.3658C67.8252 35.3471 67.794 35.3377 67.7566 35.3377H66.0682C66.0277 35.3377 65.9934 35.3471 65.9653 35.3658C65.9373 35.3845 65.9139 35.4048 65.8952 35.4266C65.8765 35.4484 65.8609 35.4703 65.8484 35.4921C65.8391 35.5139 65.8344 35.5264 65.8344 35.5295C65.7346 35.8226 65.6504 36.0704 65.5818 36.2731C65.5132 36.4727 65.4556 36.6379 65.4088 36.7689C65.3651 36.8998 65.3309 37.0011 65.3059 37.0729C65.281 37.1446 65.2623 37.1976 65.2498 37.2319C65.2404 37.263 65.2342 37.2833 65.2311 37.2927C65.2311 37.2989 65.2311 37.302 65.2311 37.302C65.2311 37.3114 65.2326 37.3223 65.2358 37.3348C65.2389 37.3441 65.242 37.3535 65.2451 37.3628C65.2701 37.4408 65.3153 37.5062 65.3807 37.5592C65.4493 37.6091 65.5273 37.6497 65.6146 37.6808C65.7019 37.7089 65.7907 37.7292 65.8812 37.7416C65.9747 37.7541 66.0573 37.7604 66.129 37.7604H66.2506C66.2662 37.7604 66.2756 37.765 66.2787 37.7744C66.2849 37.7837 66.288 37.7915 66.288 37.7978V37.9802C66.288 37.9864 66.2849 37.9942 66.2787 38.0035C66.2756 38.0129 66.2662 38.0176 66.2506 38.0176H63.7205C63.6955 38.0176 63.683 38.0051 63.683 37.9802V37.7978ZM66.1337 34.6643C66.1275 34.6799 66.1228 34.6955 66.1197 34.711C66.1166 34.7266 66.115 34.7422 66.115 34.7578C66.115 34.7765 66.1197 34.7921 66.129 34.8046C66.1384 34.8139 66.1571 34.8186 66.1852 34.8186H67.5882C67.6225 34.8186 67.6443 34.8124 67.6537 34.7999C67.6662 34.7843 67.6724 34.7672 67.6724 34.7485C67.6724 34.7329 67.6708 34.7188 67.6677 34.7064C67.6646 34.6939 67.6599 34.6799 67.6537 34.6643L67.0317 32.9572C67.0161 32.9136 66.9927 32.8824 66.9615 32.8637C66.9303 32.8419 66.9023 32.8309 66.8773 32.8309C66.8524 32.8309 66.8243 32.8434 66.7931 32.8684C66.762 32.8902 66.7386 32.9214 66.723 32.9619L66.1337 34.6643ZM74.0713 38.1439C73.9964 38.1439 73.9481 38.1096 73.9263 38.041L71.4896 32.1388C71.4616 32.0702 71.4242 32.0125 71.3774 31.9657C71.3337 31.9158 71.2885 31.8753 71.2418 31.8441C71.195 31.8098 71.1498 31.7849 71.1061 31.7693C71.0625 31.7506 71.0266 31.7381 70.9986 31.7319C70.9767 31.7257 70.9518 31.7194 70.9237 31.7132C70.8957 31.7069 70.8676 31.7023 70.8396 31.6991C70.8146 31.6929 70.7912 31.6882 70.7694 31.6851C70.7476 31.682 70.7351 31.6804 70.732 31.6804C70.707 31.6804 70.6946 31.668 70.6946 31.643V31.4606C70.6946 31.4357 70.707 31.4232 70.732 31.4232H73.9123C73.931 31.4232 73.9419 31.4279 73.945 31.4372C73.9481 31.4435 73.9497 31.4513 73.9497 31.4606V31.643C73.9497 31.6493 73.9465 31.6571 73.9403 31.6664C73.9372 31.6758 73.9278 31.6804 73.9123 31.6804H73.8421C73.7642 31.6929 73.6753 31.7054 73.5755 31.7179C73.4789 31.7303 73.3869 31.7537 73.2996 31.788C73.2154 31.8192 73.1437 31.8675 73.0844 31.933C73.0283 31.9954 73.0003 32.0827 73.0003 32.1949C73.0003 32.2354 73.0065 32.2822 73.019 32.3352C73.0346 32.3882 73.0502 32.4319 73.0657 32.4662L74.7354 36.5163C74.7385 36.5257 74.7416 36.5335 74.7447 36.5397C74.751 36.5428 74.7572 36.5475 74.7634 36.5537C74.7697 36.56 74.7759 36.5631 74.7821 36.5631C74.804 36.5631 74.8211 36.5459 74.8336 36.5116L76.3676 32.3679C76.3801 32.3336 76.3925 32.3025 76.405 32.2744C76.4206 32.2432 76.4284 32.212 76.4284 32.1809C76.4284 32.0717 76.3925 31.9782 76.3208 31.9003C76.2491 31.8192 76.1493 31.7677 76.0215 31.7459C76.0028 31.7428 75.9716 31.7381 75.928 31.7319C75.8874 31.7257 75.8438 31.7194 75.797 31.7132C75.7503 31.7038 75.705 31.696 75.6614 31.6898C75.6177 31.6836 75.5866 31.6804 75.5679 31.6804C75.5429 31.6804 75.5304 31.668 75.5304 31.643V31.4606C75.5304 31.4544 75.532 31.4466 75.5351 31.4372C75.5382 31.4279 75.5492 31.4232 75.5679 31.4232H78.07C78.0887 31.4232 78.0996 31.4279 78.1027 31.4372C78.1058 31.4466 78.1074 31.4544 78.1074 31.4606V31.643C78.1074 31.6524 78.1058 31.6617 78.1027 31.6711C78.0996 31.6773 78.0887 31.6804 78.07 31.6804H77.8969C77.7254 31.7147 77.5836 31.7818 77.4713 31.8815C77.3622 31.9782 77.2687 32.0936 77.1907 32.2276C77.1159 32.3586 77.052 32.5005 76.999 32.6532C76.946 32.8029 76.893 32.9479 76.84 33.0882L75.03 37.9802C75.002 38.0581 74.9677 38.1049 74.9271 38.1205C74.8866 38.1361 74.8305 38.1439 74.7588 38.1439H74.0713ZM79.7967 38.0176C79.7811 38.0176 79.7702 38.0129 79.7639 38.0035C79.7608 37.9942 79.7593 37.9864 79.7593 37.9802V37.7276C79.7593 37.7214 79.7608 37.7136 79.7639 37.7042C79.767 37.6949 79.778 37.6902 79.7967 37.6902H79.9089C79.9183 37.6902 79.9479 37.6886 79.9978 37.6855C80.0508 37.6793 80.11 37.6715 80.1755 37.6621C80.2441 37.6497 80.3142 37.6341 80.386 37.6154C80.4577 37.5967 80.5185 37.5733 80.5683 37.5452C80.6775 37.4829 80.7585 37.4034 80.8115 37.3067C80.8645 37.2069 80.8911 37.0962 80.8911 36.9746V32.3071C80.8911 32.1949 80.8536 32.1029 80.7788 32.0312C80.7071 31.9595 80.6198 31.9034 80.5169 31.8628C80.4171 31.8192 80.3142 31.7896 80.2082 31.774C80.1053 31.7584 80.0227 31.7506 79.9604 31.7506H79.8575C79.8419 31.7506 79.831 31.7459 79.8247 31.7366C79.8216 31.7241 79.8201 31.7163 79.8201 31.7132V31.4606C79.8201 31.4544 79.8216 31.4466 79.8247 31.4372C79.831 31.4279 79.8419 31.4232 79.8575 31.4232H83.4446C83.4602 31.4232 83.4696 31.4279 83.4727 31.4372C83.4789 31.4466 83.482 31.4544 83.482 31.4606V31.7132C83.482 31.7194 83.4789 31.7272 83.4727 31.7366C83.4696 31.7459 83.4602 31.7506 83.4446 31.7506H83.2435C83.0689 31.7506 82.9068 31.7646 82.7571 31.7927C82.6075 31.8207 82.4859 31.8519 82.3923 31.8862C82.3206 31.9112 82.2738 31.9533 82.252 32.0125C82.2333 32.0686 82.224 32.1668 82.224 32.3071V37.2132C82.2302 37.2662 82.2583 37.3161 82.3081 37.3628C82.358 37.4096 82.4141 37.433 82.4765 37.433H84.1134C84.2225 37.433 84.3254 37.4096 84.4221 37.3628C84.5218 37.3161 84.6138 37.2568 84.698 37.1851C84.7822 37.1103 84.8601 37.0292 84.9319 36.9419C85.0036 36.8546 85.069 36.7704 85.1283 36.6894C85.1875 36.6083 85.2405 36.5366 85.2873 36.4742C85.3341 36.4087 85.3746 36.362 85.4089 36.3339C85.4245 36.3246 85.4416 36.3152 85.4603 36.3058C85.4822 36.2965 85.5071 36.2918 85.5352 36.2918C85.5882 36.2918 85.6147 36.3121 85.6147 36.3526C85.6147 36.3713 85.61 36.39 85.6006 36.4087L84.8243 37.9334C84.8118 37.9583 84.7978 37.9786 84.7822 37.9942C84.7666 38.0098 84.7479 38.0176 84.7261 38.0176H79.7967ZM87.1122 37.7978C87.1122 37.7728 87.1247 37.7604 87.1496 37.7604C87.2089 37.7572 87.2775 37.7494 87.3554 37.737C87.4365 37.7214 87.5175 37.6918 87.5986 37.6481C87.6828 37.6013 87.7638 37.5343 87.8418 37.447C87.9197 37.3566 87.9852 37.2334 88.0382 37.0775L89.9183 31.6243C89.9183 31.6274 89.9183 31.6259 89.9183 31.6196C89.9214 31.6134 89.923 31.6072 89.923 31.6009C89.923 31.5791 89.9136 31.5526 89.8949 31.5214C89.8793 31.4871 89.8715 31.4622 89.8715 31.4466C89.8715 31.431 89.8778 31.4232 89.8903 31.4232H91.2465C91.2528 31.4263 91.2606 31.4295 91.2699 31.4326C91.2824 31.4357 91.2917 31.445 91.298 31.4606L93.2763 37.0121C93.3075 37.0994 93.3371 37.1742 93.3652 37.2365C93.3932 37.2989 93.426 37.355 93.4634 37.4049C93.5039 37.4517 93.5538 37.4953 93.613 37.5359C93.6723 37.5733 93.7487 37.6123 93.8422 37.6528C93.8858 37.6746 93.9451 37.698 94.0199 37.7229C94.0947 37.7479 94.1665 37.7604 94.235 37.7604C94.2506 37.7604 94.26 37.765 94.2631 37.7744C94.2693 37.7837 94.2725 37.7931 94.2725 37.8024V37.9802C94.2725 37.9864 94.2693 37.9942 94.2631 38.0035C94.26 38.0129 94.2506 38.0176 94.235 38.0176H90.9519C90.9363 38.0176 90.9254 38.0129 90.9192 38.0035C90.916 37.9942 90.9145 37.9864 90.9145 37.9802V37.7978C90.9145 37.7915 90.916 37.7837 90.9192 37.7744C90.9254 37.765 90.9363 37.7604 90.9519 37.7604C90.9644 37.7604 90.9768 37.7604 90.9893 37.7604C91.0018 37.7572 91.0111 37.7557 91.0174 37.7557C91.0517 37.7526 91.1 37.7494 91.1624 37.7463C91.2278 37.7432 91.298 37.7385 91.3728 37.7323C91.4476 37.7229 91.5225 37.7105 91.5973 37.6949C91.6753 37.6762 91.7454 37.6512 91.8078 37.62C91.8701 37.5857 91.9216 37.5421 91.9621 37.4891C92.0026 37.4361 92.0229 37.3706 92.0229 37.2927C92.0229 37.274 92.0198 37.2521 92.0135 37.2272L91.4009 35.5388C91.3978 35.5326 91.3915 35.5186 91.3822 35.4968C91.3759 35.4749 91.3635 35.4531 91.3448 35.4313C91.3292 35.4063 91.3073 35.3845 91.2793 35.3658C91.2543 35.3471 91.2232 35.3377 91.1857 35.3377H89.4974C89.4569 35.3377 89.4226 35.3471 89.3945 35.3658C89.3664 35.3845 89.3431 35.4048 89.3244 35.4266C89.3056 35.4484 89.2901 35.4703 89.2776 35.4921C89.2682 35.5139 89.2636 35.5264 89.2636 35.5295C89.1638 35.8226 89.0796 36.0704 89.011 36.2731C88.9424 36.4727 88.8847 36.6379 88.838 36.7689C88.7943 36.8998 88.76 37.0011 88.7351 37.0729C88.7101 37.1446 88.6914 37.1976 88.6789 37.2319C88.6696 37.263 88.6634 37.2833 88.6602 37.2927C88.6602 37.2989 88.6602 37.302 88.6602 37.302C88.6602 37.3114 88.6618 37.3223 88.6649 37.3348C88.668 37.3441 88.6712 37.3535 88.6743 37.3628C88.6992 37.4408 88.7444 37.5062 88.8099 37.5592C88.8785 37.6091 88.9564 37.6497 89.0437 37.6808C89.131 37.7089 89.2199 37.7292 89.3103 37.7416C89.4039 37.7541 89.4865 37.7604 89.5582 37.7604H89.6798C89.6954 37.7604 89.7047 37.765 89.7079 37.7744C89.7141 37.7837 89.7172 37.7915 89.7172 37.7978V37.9802C89.7172 37.9864 89.7141 37.9942 89.7079 38.0035C89.7047 38.0129 89.6954 38.0176 89.6798 38.0176H87.1496C87.1247 38.0176 87.1122 38.0051 87.1122 37.9802V37.7978ZM89.5629 34.6643C89.5566 34.6799 89.552 34.6955 89.5488 34.711C89.5457 34.7266 89.5442 34.7422 89.5442 34.7578C89.5442 34.7765 89.5488 34.7921 89.5582 34.8046C89.5675 34.8139 89.5863 34.8186 89.6143 34.8186H91.0174C91.0517 34.8186 91.0735 34.8124 91.0829 34.7999C91.0953 34.7843 91.1016 34.7672 91.1016 34.7485C91.1016 34.7329 91.1 34.7188 91.0969 34.7064C91.0938 34.6939 91.0891 34.6799 91.0829 34.6643L90.4608 32.9572C90.4452 32.9136 90.4219 32.8824 90.3907 32.8637C90.3595 32.8419 90.3314 32.8309 90.3065 32.8309C90.2815 32.8309 90.2535 32.8434 90.2223 32.8684C90.1911 32.8902 90.1677 32.9214 90.1522 32.9619L89.5629 34.6643ZM98.5808 32.1388C98.5808 32.0733 98.5668 32.0374 98.5387 32.0312C98.5137 32.0219 98.4826 32.0141 98.4452 32.0078H96.8597C96.7443 32.0328 96.6539 32.0795 96.5884 32.1481C96.523 32.2136 96.4715 32.2916 96.4341 32.382C96.3967 32.4724 96.3686 32.5706 96.3499 32.6766C96.3312 32.7795 96.3109 32.8793 96.2891 32.9759C96.2829 33.004 96.2767 33.0383 96.2704 33.0788C96.2642 33.1162 96.2579 33.1381 96.2517 33.1443C96.2455 33.1537 96.2346 33.1583 96.219 33.1583H96.0646C96.0459 33.1583 96.0366 33.1521 96.0366 33.1396V32.9853L96.2096 31.3858C96.2159 31.3515 96.2299 31.3188 96.2517 31.2876C96.2735 31.2564 96.3078 31.2408 96.3546 31.2408C96.3764 31.2408 96.3967 31.2471 96.4154 31.2595C96.4372 31.272 96.4575 31.2876 96.4762 31.3063C96.4949 31.3219 96.5121 31.3375 96.5276 31.3531C96.5464 31.3687 96.5651 31.3796 96.5838 31.3858C96.6212 31.4014 96.6555 31.4123 96.6867 31.4185C96.721 31.4217 96.7584 31.4232 96.7989 31.4232H101.7C101.741 31.4232 101.777 31.4217 101.808 31.4185C101.842 31.4123 101.878 31.4014 101.915 31.3858C101.934 31.3796 101.951 31.3687 101.967 31.3531C101.986 31.3375 102.004 31.3219 102.023 31.3063C102.042 31.2876 102.06 31.272 102.079 31.2595C102.101 31.2471 102.123 31.2408 102.145 31.2408C102.191 31.2408 102.226 31.2564 102.247 31.2876C102.269 31.3188 102.283 31.3515 102.29 31.3858L102.463 32.9853V33.1396C102.463 33.1521 102.453 33.1583 102.435 33.1583H102.28C102.265 33.1583 102.254 33.1537 102.247 33.1443C102.241 33.1381 102.235 33.1162 102.229 33.0788C102.222 33.0383 102.216 33.004 102.21 32.9759C102.188 32.8793 102.168 32.7795 102.149 32.6766C102.131 32.5706 102.102 32.4724 102.065 32.382C102.028 32.2916 101.976 32.2136 101.911 32.1481C101.845 32.0795 101.755 32.0328 101.639 32.0078H100.049C100.012 32.0141 99.9792 32.0219 99.9511 32.0312C99.9262 32.0374 99.9137 32.0733 99.9137 32.1388V37.1056C99.9137 37.1991 99.9371 37.2833 99.9838 37.3581C100.031 37.4299 100.093 37.4938 100.171 37.5499C100.252 37.606 100.346 37.6512 100.452 37.6855C100.561 37.7198 100.676 37.7432 100.798 37.7557C100.832 37.7588 100.876 37.7604 100.929 37.7604C100.982 37.7604 101.027 37.7604 101.064 37.7604C101.08 37.7604 101.089 37.765 101.092 37.7744C101.098 37.7837 101.102 37.7915 101.102 37.7978V37.9802C101.102 37.9864 101.098 37.9942 101.092 38.0035C101.089 38.0129 101.08 38.0176 101.064 38.0176H97.4303C97.4147 38.0176 97.4038 38.0129 97.3975 38.0035C97.3944 37.9942 97.3929 37.9864 97.3929 37.9802V37.7978C97.3929 37.7915 97.3944 37.7837 97.3975 37.7744C97.4038 37.765 97.4147 37.7604 97.4303 37.7604C97.4646 37.7604 97.5082 37.7604 97.5612 37.7604C97.6174 37.7604 97.6626 37.7588 97.6969 37.7557C97.8185 37.7432 97.9323 37.7198 98.0383 37.6855C98.1474 37.6512 98.2409 37.606 98.3189 37.5499C98.3999 37.4938 98.4639 37.4299 98.5106 37.3581C98.5574 37.2833 98.5808 37.1991 98.5808 37.1056V32.1388ZM111.051 32.1388C111.051 32.0733 111.037 32.0374 111.009 32.0312C110.984 32.0219 110.953 32.0141 110.916 32.0078H109.33C109.215 32.0328 109.124 32.0795 109.059 32.1481C108.993 32.2136 108.942 32.2916 108.904 32.382C108.867 32.4724 108.839 32.5706 108.82 32.6766C108.802 32.7795 108.781 32.8793 108.759 32.9759C108.753 33.004 108.747 33.0383 108.741 33.0788C108.735 33.1162 108.728 33.1381 108.722 33.1443C108.716 33.1537 108.705 33.1583 108.689 33.1583H108.535C108.516 33.1583 108.507 33.1521 108.507 33.1396V32.9853L108.68 31.3858C108.686 31.3515 108.7 31.3188 108.722 31.2876C108.744 31.2564 108.778 31.2408 108.825 31.2408C108.847 31.2408 108.867 31.2471 108.886 31.2595C108.908 31.272 108.928 31.2876 108.947 31.3063C108.965 31.3219 108.982 31.3375 108.998 31.3531C109.017 31.3687 109.035 31.3796 109.054 31.3858C109.092 31.4014 109.126 31.4123 109.157 31.4185C109.191 31.4217 109.229 31.4232 109.269 31.4232H114.171C114.211 31.4232 114.247 31.4217 114.278 31.4185C114.312 31.4123 114.348 31.4014 114.386 31.3858C114.404 31.3796 114.422 31.3687 114.437 31.3531C114.456 31.3375 114.475 31.3219 114.493 31.3063C114.512 31.2876 114.531 31.272 114.549 31.2595C114.571 31.2471 114.593 31.2408 114.615 31.2408C114.662 31.2408 114.696 31.2564 114.718 31.2876C114.74 31.3188 114.754 31.3515 114.76 31.3858L114.933 32.9853V33.1396C114.933 33.1521 114.924 33.1583 114.905 33.1583H114.751C114.735 33.1583 114.724 33.1537 114.718 33.1443C114.712 33.1381 114.705 33.1162 114.699 33.0788C114.693 33.0383 114.687 33.004 114.68 32.9759C114.659 32.8793 114.638 32.7795 114.62 32.6766C114.601 32.5706 114.573 32.4724 114.535 32.382C114.498 32.2916 114.447 32.2136 114.381 32.1481C114.316 32.0795 114.225 32.0328 114.11 32.0078H112.52C112.482 32.0141 112.45 32.0219 112.421 32.0312C112.397 32.0374 112.384 32.0733 112.384 32.1388V37.1056C112.384 37.1991 112.407 37.2833 112.454 37.3581C112.501 37.4299 112.563 37.4938 112.641 37.5499C112.722 37.606 112.816 37.6512 112.922 37.6855C113.031 37.7198 113.146 37.7432 113.268 37.7557C113.302 37.7588 113.346 37.7604 113.399 37.7604C113.452 37.7604 113.497 37.7604 113.535 37.7604C113.55 37.7604 113.559 37.765 113.563 37.7744C113.569 37.7837 113.572 37.7915 113.572 37.7978V37.9802C113.572 37.9864 113.569 37.9942 113.563 38.0035C113.559 38.0129 113.55 38.0176 113.535 38.0176H109.901C109.885 38.0176 109.874 38.0129 109.868 38.0035C109.865 37.9942 109.863 37.9864 109.863 37.9802V37.7978C109.863 37.7915 109.865 37.7837 109.868 37.7744C109.874 37.765 109.885 37.7604 109.901 37.7604C109.935 37.7604 109.979 37.7604 110.032 37.7604C110.088 37.7604 110.133 37.7588 110.167 37.7557C110.289 37.7432 110.403 37.7198 110.509 37.6855C110.618 37.6512 110.711 37.606 110.789 37.5499C110.87 37.4938 110.934 37.4299 110.981 37.3581C111.028 37.2833 111.051 37.1991 111.051 37.1056V32.1388ZM115.804 37.7978C115.804 37.7728 115.816 37.7604 115.841 37.7604C115.9 37.7572 115.969 37.7494 116.047 37.737C116.128 37.7214 116.209 37.6918 116.29 37.6481C116.374 37.6013 116.455 37.5343 116.533 37.447C116.611 37.3566 116.677 37.2334 116.73 37.0775L118.61 31.6243C118.61 31.6274 118.61 31.6259 118.61 31.6196C118.613 31.6134 118.615 31.6072 118.615 31.6009C118.615 31.5791 118.605 31.5526 118.586 31.5214C118.571 31.4871 118.563 31.4622 118.563 31.4466C118.563 31.431 118.569 31.4232 118.582 31.4232H119.938C119.944 31.4263 119.952 31.4295 119.961 31.4326C119.974 31.4357 119.983 31.445 119.99 31.4606L121.968 37.0121C121.999 37.0994 122.029 37.1742 122.057 37.2365C122.085 37.2989 122.118 37.355 122.155 37.4049C122.195 37.4517 122.245 37.4953 122.305 37.5359C122.364 37.5733 122.44 37.6123 122.534 37.6528C122.577 37.6746 122.637 37.698 122.711 37.7229C122.786 37.7479 122.858 37.7604 122.927 37.7604C122.942 37.7604 122.952 37.765 122.955 37.7744C122.961 37.7837 122.964 37.7931 122.964 37.8024V37.9802C122.964 37.9864 122.961 37.9942 122.955 38.0035C122.952 38.0129 122.942 38.0176 122.927 38.0176H119.643C119.628 38.0176 119.617 38.0129 119.611 38.0035C119.608 37.9942 119.606 37.9864 119.606 37.9802V37.7978C119.606 37.7915 119.608 37.7837 119.611 37.7744C119.617 37.765 119.628 37.7604 119.643 37.7604C119.656 37.7604 119.668 37.7604 119.681 37.7604C119.693 37.7572 119.703 37.7557 119.709 37.7557C119.743 37.7526 119.792 37.7494 119.854 37.7463C119.919 37.7432 119.99 37.7385 120.064 37.7323C120.139 37.7229 120.214 37.7105 120.289 37.6949C120.367 37.6762 120.437 37.6512 120.499 37.62C120.562 37.5857 120.613 37.5421 120.654 37.4891C120.694 37.4361 120.714 37.3706 120.714 37.2927C120.714 37.274 120.711 37.2521 120.705 37.2272L120.092 35.5388C120.089 35.5326 120.083 35.5186 120.074 35.4968C120.067 35.4749 120.055 35.4531 120.036 35.4313C120.021 35.4063 119.999 35.3845 119.971 35.3658C119.946 35.3471 119.915 35.3377 119.877 35.3377H118.189C118.148 35.3377 118.114 35.3471 118.086 35.3658C118.058 35.3845 118.035 35.4048 118.016 35.4266C117.997 35.4484 117.982 35.4703 117.969 35.4921C117.96 35.5139 117.955 35.5264 117.955 35.5295C117.855 35.8226 117.771 36.0704 117.703 36.2731C117.634 36.4727 117.576 36.6379 117.53 36.7689C117.486 36.8998 117.452 37.0011 117.427 37.0729C117.402 37.1446 117.383 37.1976 117.371 37.2319C117.361 37.263 117.355 37.2833 117.352 37.2927C117.352 37.2989 117.352 37.302 117.352 37.302C117.352 37.3114 117.353 37.3223 117.356 37.3348C117.36 37.3441 117.363 37.3535 117.366 37.3628C117.391 37.4408 117.436 37.5062 117.501 37.5592C117.57 37.6091 117.648 37.6497 117.735 37.6808C117.823 37.7089 117.911 37.7292 118.002 37.7416C118.095 37.7541 118.178 37.7604 118.25 37.7604H118.371C118.387 37.7604 118.396 37.765 118.399 37.7744C118.406 37.7837 118.409 37.7915 118.409 37.7978V37.9802C118.409 37.9864 118.406 37.9942 118.399 38.0035C118.396 38.0129 118.387 38.0176 118.371 38.0176H115.841C115.816 38.0176 115.804 38.0051 115.804 37.9802V37.7978ZM118.254 34.6643C118.248 34.6799 118.244 34.6955 118.24 34.711C118.237 34.7266 118.236 34.7422 118.236 34.7578C118.236 34.7765 118.24 34.7921 118.25 34.8046C118.259 34.8139 118.278 34.8186 118.306 34.8186H119.709C119.743 34.8186 119.765 34.8124 119.774 34.7999C119.787 34.7843 119.793 34.7672 119.793 34.7485C119.793 34.7329 119.792 34.7188 119.788 34.7064C119.785 34.6939 119.781 34.6799 119.774 34.6643L119.152 32.9572C119.137 32.9136 119.113 32.8824 119.082 32.8637C119.051 32.8419 119.023 32.8309 118.998 32.8309C118.973 32.8309 118.945 32.8434 118.914 32.8684C118.883 32.8902 118.859 32.9214 118.844 32.9619L118.254 34.6643ZM125.448 34.2434C125.386 34.2434 125.347 34.2231 125.331 34.1826C125.316 34.142 125.308 34.1046 125.308 34.0703C125.311 34.0298 125.324 33.9924 125.345 33.9581C125.37 33.9238 125.4 33.8926 125.434 33.8645C125.469 33.8365 125.503 33.81 125.537 33.785C125.575 33.757 125.607 33.7305 125.635 33.7055C125.679 33.6619 125.724 33.6135 125.771 33.5605C125.818 33.5075 125.86 33.4514 125.897 33.3922C125.935 33.3329 125.966 33.2721 125.991 33.2098C126.016 33.1474 126.028 33.0851 126.028 33.0227C126.028 32.9978 126.024 32.9713 126.014 32.9432C126.008 32.9151 125.978 32.9011 125.925 32.9011C125.826 32.9011 125.723 32.8855 125.617 32.8543C125.514 32.8232 125.419 32.7764 125.331 32.714C125.244 32.6517 125.172 32.5753 125.116 32.4849C125.063 32.3913 125.037 32.2838 125.037 32.1622C125.037 32.0437 125.056 31.9392 125.093 31.8488C125.13 31.7553 125.183 31.6773 125.252 31.615C125.321 31.5526 125.4 31.5058 125.49 31.4747C125.584 31.4404 125.687 31.4232 125.799 31.4232C125.992 31.4232 126.148 31.4606 126.267 31.5355C126.388 31.6072 126.482 31.696 126.547 31.802C126.613 31.9049 126.657 32.0141 126.678 32.1294C126.7 32.2417 126.711 32.3399 126.711 32.4241C126.711 32.5924 126.685 32.7577 126.632 32.9198C126.579 33.0819 126.508 33.2347 126.421 33.3781C126.337 33.5216 126.239 33.6541 126.127 33.7757C126.014 33.8973 125.899 34.0017 125.78 34.089C125.734 34.1233 125.679 34.1576 125.617 34.1919C125.557 34.2262 125.501 34.2434 125.448 34.2434ZM128.587 38.0176C128.572 38.0176 128.561 38.0129 128.555 38.0035C128.552 37.9942 128.55 37.9864 128.55 37.9802V37.7276C128.55 37.7214 128.552 37.7136 128.555 37.7042C128.558 37.6949 128.569 37.6902 128.587 37.6902H128.7C128.709 37.6902 128.739 37.6886 128.789 37.6855C128.842 37.6793 128.901 37.6715 128.966 37.6621C129.035 37.6497 129.105 37.6341 129.177 37.6154C129.248 37.5967 129.309 37.5733 129.359 37.5452C129.468 37.4829 129.549 37.4034 129.602 37.3067C129.655 37.2069 129.682 37.0962 129.682 36.9746V32.3071C129.682 32.1949 129.644 32.1029 129.57 32.0312C129.498 31.9595 129.411 31.9034 129.308 31.8628C129.208 31.8192 129.105 31.7896 128.999 31.774C128.896 31.7584 128.814 31.7506 128.751 31.7506H128.648C128.633 31.7506 128.622 31.7459 128.616 31.7366C128.612 31.7241 128.611 31.7163 128.611 31.7132V31.4606C128.611 31.4544 128.612 31.4466 128.616 31.4372C128.622 31.4279 128.633 31.4232 128.648 31.4232H132.235C132.251 31.4232 132.26 31.4279 132.263 31.4372C132.27 31.4466 132.273 31.4544 132.273 31.4606V31.7132C132.273 31.7194 132.27 31.7272 132.263 31.7366C132.26 31.7459 132.251 31.7506 132.235 31.7506H132.034C131.86 31.7506 131.698 31.7646 131.548 31.7927C131.398 31.8207 131.277 31.8519 131.183 31.8862C131.111 31.9112 131.065 31.9533 131.043 32.0125C131.024 32.0686 131.015 32.1668 131.015 32.3071V37.2132C131.021 37.2662 131.049 37.3161 131.099 37.3628C131.149 37.4096 131.205 37.433 131.267 37.433H132.904C133.013 37.433 133.116 37.4096 133.213 37.3628C133.313 37.3161 133.405 37.2568 133.489 37.1851C133.573 37.1103 133.651 37.0292 133.723 36.9419C133.794 36.8546 133.86 36.7704 133.919 36.6894C133.978 36.6083 134.031 36.5366 134.078 36.4742C134.125 36.4087 134.165 36.362 134.2 36.3339C134.215 36.3246 134.232 36.3152 134.251 36.3058C134.273 36.2965 134.298 36.2918 134.326 36.2918C134.379 36.2918 134.405 36.3121 134.405 36.3526C134.405 36.3713 134.401 36.39 134.391 36.4087L133.615 37.9334C133.603 37.9583 133.589 37.9786 133.573 37.9942C133.557 38.0098 133.539 38.0176 133.517 38.0176H128.587ZM138.391 37.129C138.391 37.235 138.407 37.3238 138.438 37.3956C138.472 37.4673 138.519 37.5249 138.578 37.5686C138.641 37.6123 138.715 37.6434 138.803 37.6621C138.893 37.6808 138.993 37.6902 139.102 37.6902C139.127 37.6902 139.139 37.7027 139.139 37.7276V37.9802C139.139 37.9895 139.138 37.9989 139.135 38.0082C139.132 38.0145 139.121 38.0176 139.102 38.0176H136.338C136.322 38.0176 136.311 38.0129 136.305 38.0035C136.302 37.9942 136.301 37.9864 136.301 37.9802V37.7276C136.301 37.7214 136.302 37.7136 136.305 37.7042C136.311 37.6949 136.322 37.6902 136.338 37.6902C136.447 37.6902 136.545 37.684 136.633 37.6715C136.723 37.6559 136.799 37.6247 136.862 37.578C136.924 37.5312 136.972 37.4642 137.007 37.3768C137.041 37.2895 137.058 37.1711 137.058 37.0214V32.3118C137.058 32.2058 137.041 32.1169 137.007 32.0452C136.976 31.9735 136.929 31.9158 136.866 31.8722C136.807 31.8285 136.732 31.7974 136.642 31.7787C136.555 31.7599 136.456 31.7506 136.347 31.7506C136.322 31.7506 136.31 31.7381 136.31 31.7132V31.4606C136.31 31.4357 136.322 31.4232 136.347 31.4232H139.111C139.127 31.4232 139.136 31.4279 139.139 31.4372C139.146 31.4466 139.149 31.4544 139.149 31.4606V31.7132C139.149 31.7194 139.146 31.7272 139.139 31.7366C139.136 31.7459 139.127 31.7506 139.111 31.7506C139.002 31.7506 138.902 31.7584 138.812 31.774C138.725 31.7865 138.65 31.8161 138.588 31.8628C138.525 31.9096 138.477 31.9766 138.443 32.0639C138.408 32.1512 138.391 32.2697 138.391 32.4194V37.129ZM141.133 37.7744C141.133 37.7681 141.134 37.7604 141.137 37.751C141.144 37.7416 141.154 37.737 141.17 37.737C141.376 37.737 141.535 37.7136 141.647 37.6668C141.762 37.6169 141.847 37.5499 141.9 37.4657C141.956 37.3784 141.99 37.2755 142.003 37.157C142.015 37.0386 142.024 36.9107 142.031 36.7735C142.049 36.3713 142.071 35.9816 142.096 35.6043C142.124 35.2239 142.151 34.8513 142.176 34.4866C142.201 34.1186 142.222 33.7554 142.241 33.3968C142.26 33.0383 142.269 32.6782 142.269 32.3165V32.1435C142.269 32.0717 142.246 32.0094 142.199 31.9564C142.152 31.9003 142.096 31.8535 142.031 31.8161C141.968 31.7787 141.904 31.7506 141.839 31.7319C141.773 31.7132 141.722 31.7038 141.685 31.7038C141.66 31.7038 141.647 31.6914 141.647 31.6664V31.4606C141.647 31.4544 141.649 31.4466 141.652 31.4372C141.655 31.4279 141.666 31.4232 141.685 31.4232H143.34C143.374 31.4295 143.402 31.4419 143.424 31.4606C143.446 31.4762 143.466 31.498 143.485 31.5261L145.52 36.0627C145.541 36.1157 145.569 36.1422 145.604 36.1422C145.638 36.1422 145.663 36.1344 145.679 36.1188C145.694 36.1032 145.707 36.0829 145.716 36.058L147.727 31.6103C147.758 31.551 147.789 31.5058 147.821 31.4747C147.852 31.4404 147.883 31.4232 147.914 31.4232H149.56C149.579 31.4232 149.59 31.4279 149.593 31.4372C149.596 31.4466 149.598 31.4544 149.598 31.4606V31.6664C149.598 31.6726 149.595 31.6804 149.588 31.6898C149.585 31.6991 149.576 31.7038 149.56 31.7038C149.554 31.7038 149.517 31.7101 149.448 31.7225C149.383 31.735 149.309 31.7599 149.228 31.7974C149.15 31.8317 149.079 31.8831 149.013 31.9517C148.948 32.0172 148.915 32.1045 148.915 32.2136L149.186 37.1945C149.189 37.2849 149.213 37.3613 149.256 37.4236C149.303 37.486 149.359 37.5374 149.425 37.578C149.49 37.6185 149.559 37.6497 149.631 37.6715C149.705 37.6902 149.774 37.7058 149.836 37.7183C149.902 37.7276 149.956 37.7338 150 37.737C150.047 37.737 150.072 37.737 150.075 37.737C150.09 37.737 150.1 37.7416 150.103 37.751C150.109 37.7604 150.112 37.7681 150.112 37.7744V37.9802C150.112 37.9864 150.109 37.9942 150.103 38.0035C150.1 38.0129 150.09 38.0176 150.075 38.0176H146.997C146.972 38.0176 146.96 38.0051 146.96 37.9802V37.7744C146.96 37.7494 146.972 37.737 146.997 37.737C147.072 37.737 147.156 37.7338 147.25 37.7276C147.347 37.7183 147.439 37.6996 147.526 37.6715C147.613 37.6434 147.686 37.6029 147.746 37.5499C147.805 37.4938 147.835 37.4205 147.835 37.3301L147.619 33.5091C147.616 33.4779 147.609 33.4623 147.596 33.4623C147.584 33.4623 147.571 33.4764 147.559 33.5044L145.51 37.9381C145.495 37.9724 145.473 37.9942 145.445 38.0035C145.42 38.0129 145.375 38.0176 145.309 38.0176C145.197 38.0176 145.113 38.0145 145.057 38.0082C145.004 38.002 144.968 37.977 144.949 37.9334L142.957 33.5418C142.947 33.52 142.939 33.5044 142.933 33.4951C142.93 33.4826 142.922 33.4764 142.91 33.4764C142.888 33.4764 142.877 33.4966 142.877 33.5372C142.877 33.6307 142.872 33.7679 142.863 33.9487C142.854 34.1296 142.841 34.3338 142.826 34.5614C142.81 34.7859 142.795 35.0244 142.779 35.2769C142.763 35.5295 142.748 35.7742 142.732 36.0112C142.717 36.2482 142.704 36.4695 142.695 36.6753C142.685 36.878 142.681 37.0448 142.681 37.1757V37.3675C142.693 37.4267 142.724 37.4797 142.774 37.5265C142.824 37.5733 142.886 37.6123 142.961 37.6434C143.036 37.6746 143.119 37.698 143.209 37.7136C143.3 37.7292 143.395 37.737 143.494 37.737C143.51 37.737 143.518 37.7416 143.518 37.751C143.521 37.7604 143.523 37.7681 143.523 37.7744V37.9802C143.523 38.0051 143.513 38.0176 143.494 38.0176H141.17C141.145 38.0176 141.133 38.0051 141.133 37.9802V37.7744Z" fill="#004AAD"/>
<path d="M37.2591 49.4111V44.3347H35.2956V43.8239H39.8133V44.3347H37.8498V49.4111H37.2591ZM42.2962 49.4111L44.8503 43.8239H45.433L47.9872 49.4111H47.3646L45.018 44.1671H45.2574L42.9108 49.4111H42.2962ZM43.3019 47.9185L43.4775 47.4396H46.7261L46.9017 47.9185H43.3019ZM53.1658 49.459C52.7507 49.459 52.3516 49.3925 51.9685 49.2595C51.5907 49.1211 51.298 48.9455 51.0905 48.7327L51.322 48.2777C51.5189 48.4693 51.7823 48.6316 52.1122 48.7646C52.4474 48.8923 52.7986 48.9562 53.1658 48.9562C53.517 48.9562 53.8017 48.9136 54.0198 48.8285C54.2433 48.738 54.4056 48.6183 54.5067 48.4693C54.6132 48.3203 54.6664 48.1553 54.6664 47.9744C54.6664 47.7562 54.6025 47.5806 54.4748 47.4476C54.3524 47.3146 54.1901 47.2108 53.9879 47.1363C53.7857 47.0565 53.5622 46.9873 53.3174 46.9288C53.0727 46.8703 52.8279 46.8091 52.5831 46.7452C52.3383 46.676 52.1122 46.5856 51.9047 46.4738C51.7025 46.3621 51.5375 46.2157 51.4098 46.0348C51.2874 45.8486 51.2262 45.6065 51.2262 45.3085C51.2262 45.0318 51.298 44.779 51.4417 44.5502C51.5907 44.3161 51.8169 44.1298 52.1202 43.9915C52.4235 43.8478 52.8119 43.776 53.2855 43.776C53.5995 43.776 53.9108 43.8212 54.2194 43.9117C54.528 43.9968 54.7941 44.1165 55.0176 44.2708L54.818 44.7418C54.5786 44.5821 54.3232 44.4651 54.0518 44.3906C53.7857 44.3161 53.5276 44.2788 53.2775 44.2788C52.9423 44.2788 52.6656 44.324 52.4474 44.4145C52.2293 44.505 52.067 44.6274 51.9605 44.7817C51.8594 44.9307 51.8089 45.1009 51.8089 45.2925C51.8089 45.5107 51.8701 45.6863 51.9925 45.8193C52.1202 45.9523 52.2851 46.0561 52.4873 46.1306C52.6949 46.2051 52.921 46.2716 53.1658 46.3301C53.4106 46.3887 53.6527 46.4525 53.8921 46.5217C54.1369 46.5909 54.3604 46.6813 54.5626 46.7931C54.7701 46.8995 54.9351 47.0432 55.0575 47.2241C55.1852 47.405 55.2491 47.6418 55.2491 47.9345C55.2491 48.2059 55.1746 48.4586 55.0256 48.6928C54.8766 48.9216 54.6478 49.1078 54.3391 49.2515C54.0358 49.3898 53.6447 49.459 53.1658 49.459ZM63.3365 43.8239H63.9192V49.4111H63.3365V43.8239ZM59.8405 49.4111H59.2498V43.8239H59.8405V49.4111ZM63.3924 46.833H59.7766V46.3142H63.3924V46.833ZM68.9675 48.0223L68.9436 47.3039L72.3279 43.8239H73.0063L70.5399 46.41L70.2047 46.7691L68.9675 48.0223ZM68.4567 49.4111V43.8239H69.0473V49.4111H68.4567ZM72.4715 49.4111L70.061 46.6335L70.4601 46.2024L73.1739 49.4111H72.4715ZM76.8451 49.4111V43.8239H77.4357V49.4111H76.8451ZM81.9675 49.4111V43.8239H82.5581V48.9003H85.687V49.4111H81.9675ZM91.7149 49.459C91.2945 49.459 90.9034 49.3898 90.5415 49.2515C90.185 49.1078 89.8737 48.9083 89.6076 48.6529C89.3469 48.3921 89.142 48.0915 88.993 47.7509C88.8494 47.405 88.7775 47.0272 88.7775 46.6175C88.7775 46.2078 88.8494 45.8326 88.993 45.4921C89.142 45.1462 89.3469 44.8455 89.6076 44.5901C89.8737 44.3294 90.185 44.1298 90.5415 43.9915C90.898 43.8478 91.2892 43.776 91.7149 43.776C92.1352 43.776 92.5237 43.8478 92.8802 43.9915C93.2367 44.1298 93.5454 44.3267 93.8061 44.5821C94.0722 44.8375 94.277 45.1382 94.4207 45.4841C94.5697 45.83 94.6442 46.2078 94.6442 46.6175C94.6442 47.0272 94.5697 47.405 94.4207 47.7509C94.277 48.0968 94.0722 48.3974 93.8061 48.6529C93.5454 48.9083 93.2367 49.1078 92.8802 49.2515C92.5237 49.3898 92.1352 49.459 91.7149 49.459ZM91.7149 48.9322C92.0501 48.9322 92.3587 48.8764 92.6407 48.7646C92.9281 48.6475 93.1755 48.4852 93.3831 48.2777C93.5959 48.0649 93.7609 47.8201 93.8779 47.5434C93.995 47.2614 94.0535 46.9527 94.0535 46.6175C94.0535 46.2823 93.995 45.9763 93.8779 45.6996C93.7609 45.4176 93.5959 45.1728 93.3831 44.9653C93.1755 44.7524 92.9281 44.5901 92.6407 44.4784C92.3587 44.3613 92.0501 44.3028 91.7149 44.3028C91.3796 44.3028 91.0683 44.3613 90.781 44.4784C90.4936 44.5901 90.2435 44.7524 90.0307 44.9653C89.8232 45.1728 89.6582 45.4176 89.5358 45.6996C89.4187 45.9763 89.3602 46.2823 89.3602 46.6175C89.3602 46.9474 89.4187 47.2534 89.5358 47.5354C89.6582 47.8174 89.8232 48.0649 90.0307 48.2777C90.2435 48.4852 90.4936 48.6475 90.781 48.7646C91.0683 48.8764 91.3796 48.9322 91.7149 48.9322ZM99.6895 49.4111V44.3347H97.726V43.8239H102.244V44.3347H100.28V49.4111H99.6895ZM105.901 49.4111V43.8239H106.492V48.9003H109.621V49.4111H105.901ZM112.421 49.4111L114.975 43.8239H115.558L118.112 49.4111H117.49L115.143 44.1671H115.382L113.036 49.4111H112.421ZM113.427 47.9185L113.603 47.4396H116.851L117.027 47.9185H113.427ZM121.75 49.4111V43.8239H123.842C124.315 43.8239 124.722 43.901 125.063 44.0553C125.403 44.2043 125.664 44.4225 125.845 44.7098C126.031 44.9919 126.124 45.3351 126.124 45.7395C126.124 46.1333 126.031 46.4738 125.845 46.7612C125.664 47.0432 125.403 47.2614 125.063 47.4157C124.722 47.5647 124.315 47.6392 123.842 47.6392H122.078L122.341 47.3678V49.4111H121.75ZM125.566 49.4111L124.129 47.3837H124.767L126.212 49.4111H125.566ZM122.341 47.4157L122.078 47.1363H123.826C124.384 47.1363 124.807 47.0139 125.095 46.7691C125.387 46.5244 125.534 46.1812 125.534 45.7395C125.534 45.2925 125.387 44.9466 125.095 44.7019C124.807 44.4571 124.384 44.3347 123.826 44.3347H122.078L122.341 44.0553V47.4157ZM130.232 49.4111V43.8239H130.823V49.4111H130.232Z" fill="black"/>
</svg>
