<svg width="17" height="16" viewBox="0 0 17 16" fill="none" xmlns="http://www.w3.org/2000/svg">
<path d="M0.53125 9.76624V12.9364C0.53125 13.163 0.685625 13.361 0.905656 13.4151C5.8795 14.6371 10.8533 12.0545 15.8272 13.164C16.1344 13.2326 16.4256 12.9974 16.4256 12.6827V9.76624C11.1275 8.25612 5.82937 11.2764 0.53125 9.76624Z" fill="#FF473E"/>
<path d="M0.53125 6.21671V9.76627C5.82937 11.2764 11.1275 8.25615 16.4256 9.76627V6.21671C11.1275 4.70659 5.82937 7.72684 0.53125 6.21671Z" fill="#0B67B2"/>
<path d="M0.53125 3.16231V6.21672C5.82937 7.72685 11.1275 4.7066 16.4256 6.21672V2.9086C16.4256 2.682 16.2712 2.48397 16.0512 2.42991C11.0773 1.20785 6.1035 3.7905 1.12966 2.68097C0.822469 2.61247 0.53125 2.84756 0.53125 3.16231Z" fill="#E8E8E8"/>
</svg>
