<svg width="17" height="16" viewBox="0 0 17 16" fill="none" xmlns="http://www.w3.org/2000/svg">
<path d="M0.5 6.25H16.5V9.75H0.5V6.25Z" fill="#E6E7E8"/>
<path d="M14 2.5H3C1.34325 2.5 0.5 3.73125 0.5 5.25V6.25H16.5V5.25C16.5 3.73125 15.6567 2.5 14 2.5Z" fill="#1B75BB"/>
<path d="M0.5 10.75C0.5 12.2687 1.34325 13.5 3 13.5H14C15.6567 13.5 16.5 12.2687 16.5 10.75V9.75H0.5V10.75Z" fill="#29B473"/>
<path d="M3.36246 5.57775C3.1033 5.57761 2.85479 5.47457 2.67158 5.29127C2.48838 5.10796 2.38546 4.85941 2.38546 4.60025C2.38539 4.34104 2.48828 4.09242 2.6715 3.90906C2.85471 3.72571 3.10325 3.62263 3.36246 3.6225C3.39962 3.62266 3.43621 3.625 3.47221 3.6295C3.29863 3.52619 3.10045 3.47153 2.89846 3.47125C2.60314 3.47746 2.32202 3.59914 2.11536 3.81019C1.9087 4.02124 1.79297 4.30486 1.79297 4.60025C1.79297 4.89563 1.9087 5.17925 2.11536 5.3903C2.32202 5.60135 2.60314 5.72303 2.89846 5.72925C3.10042 5.72903 3.29861 5.67446 3.47221 5.57125C3.43637 5.57525 3.39979 5.57741 3.36246 5.57775ZM7.65996 3.47025L7.76721 3.6895L8.00971 3.725L7.83546 3.89575L7.87646 4.13675L7.65996 4.0225L7.44321 4.13675L7.48421 3.89575L7.30971 3.725L7.55221 3.6895L7.65996 3.47025ZM7.65996 4.265L7.76721 4.4855L8.00971 4.5225L7.83546 4.692L7.87646 4.93275L7.65996 4.81875L7.44321 4.93275L7.48421 4.692L7.30971 4.5225L7.55221 4.4855L7.65996 4.265ZM7.65996 5.0625L7.76721 5.2825L8.00971 5.3175L7.83546 5.488L7.87646 5.729L7.65996 5.6155L7.44321 5.729L7.48421 5.488L7.30971 5.3175L7.55221 5.2825L7.65996 5.0625ZM6.75971 3.47025L6.86896 3.6895L7.11071 3.725L6.93571 3.89575L6.97671 4.13675L6.75971 4.0225L6.54471 4.13675L6.58496 3.89575L6.41046 3.725L6.65221 3.6895L6.75971 3.47025ZM6.75971 4.265L6.86896 4.4855L7.11071 4.5225L6.93571 4.692L6.97671 4.93275L6.75971 4.81875L6.54471 4.93275L6.58496 4.692L6.41046 4.5225L6.65221 4.4855L6.75971 4.265ZM6.75971 5.0625L6.86896 5.2825L7.11071 5.3175L6.93571 5.488L6.97671 5.729L6.75971 5.6155L6.54471 5.729L6.58496 5.488L6.41046 5.3175L6.65221 5.2825L6.75971 5.0625ZM5.86096 3.47025L5.96896 3.6895L6.21146 3.725L6.03471 3.89575L6.07771 4.13675L5.86096 4.0225L5.64396 4.13675L5.68596 3.89575L5.50971 3.725L5.75221 3.6895L5.86096 3.47025ZM5.86096 4.265L5.96896 4.4855L6.21146 4.5225L6.03471 4.692L6.07771 4.93275L5.86096 4.81875L5.64396 4.93275L5.68596 4.692L5.50971 4.5225L5.75221 4.4855L5.86096 4.265ZM5.86096 5.0625L5.96896 5.2825L6.21146 5.3175L6.03471 5.488L6.07771 5.729L5.86096 5.6155L5.64396 5.729L5.68596 5.488L5.50971 5.3175L5.75221 5.2825L5.86096 5.0625ZM4.96146 4.265L5.06971 4.4855L5.31171 4.5225L5.13671 4.692L5.17846 4.93275L4.96146 4.81875L4.74471 4.93275L4.78721 4.692L4.61071 4.5225L4.85346 4.4855L4.96146 4.265ZM4.96146 5.0625L5.06971 5.2825L5.31171 5.3175L5.13671 5.488L5.17846 5.729L4.96146 5.6155L4.74471 5.729L4.78721 5.488L4.61071 5.3175L4.85346 5.2825L4.96146 5.0625ZM4.05721 5.0625L4.16546 5.2825L4.40796 5.3175L4.23271 5.488L4.27471 5.729L4.05721 5.6155L3.84046 5.729L3.88196 5.488L3.70696 5.3175L3.94896 5.2825L4.05721 5.0625Z" fill="#E6E7E8"/>
<path d="M0.5 6.25H16.5V6.75H0.5V6.25ZM0.5 9.5H16.5V10H0.5V9.5Z" fill="#EC1C24"/>
</svg>
